<svg width="540" height="960" viewBox="0 0 540 960" fill="none" xmlns="http://www.w3.org/2000/svg">
<g clip-path="url(#clip0_430_203)">
<path d="M0 72.433H60L120 140L180 95.732L240 72.433L300 51.4639L360 116.701L420 72.433H480L540 95.732V-86H480H420H360H300H240H180H120H60H0V72.433Z" fill="#1B2B1C"/>
<path d="M0 170.98L60 127.551L120 170.98L180 141.51L240 127.551L300 141.51L360 202L420 127.551H480L540 186.49V79.4694L480 63.9592H420L360 93.4286L300 50L240 63.9592L180 79.4694L120 108.939L60 63.9592H0V170.98Z" fill="#254024"/>
<path d="M0 260L60 189.182L120 224.591L180 205.955L240 170.545L300 224.591L360 260L420 205.955H480L540 241.364V166.818L480 96H420L360 185.455L300 112.773L240 96L180 112.773L120 148.182L60 96L0 148.182V260Z" fill="#32572B"/>
<path d="M0 287L60 316L120 326L180 278L240 307L300 335L360 345L420 259L480 268L540 287V189L480 170H420L360 199L300 180L240 151L180 170L120 180L60 161L0 199V287Z" fill="#426E30"/>
<path d="M0 386.458L60 375.36L120 359.824L180 338.185L240 348.727L300 354.276L360 397L420 380.909L480 364.818H540V230.542L480 220L420 230.542L360 273.266L300 257.176H240L180 241.085L120 257.176L60 246.633H0V386.458Z" fill="#699D34"/>
<path d="M0 435L60 406L120 387L180 358L240 378L300 368L360 454L420 445L480 406L540 387V337H480L420 366L360 395L300 318L240 308L180 289L120 328L60 356L0 376V435Z" fill="#81B533"/>
<path d="M0 493L60 454L120 445L180 397L240 445L300 426L360 502L420 512L480 474L540 435V385L480 404L420 443L360 452L300 366L240 376L180 356L120 385L60 404L0 433V493Z" fill="#9CCE30"/>
<path d="M0 665.017L60 674.483L120 665.017L180 685H240L300 654.5H360L420 643.983L480 624L540 654.5V419.966L480 460.983L420 500.948L360 490.431L300 410.5L240 430.483L180 380L120 430.483L60 439.948L0 480.966V665.017Z" fill="#DBFE19"/>
<path d="M0 752H60H120H180H240H300H360H420H480H540V654L480 625L420 644L360 654H300L240 683H180L120 664L60 673L0 664V752Z" fill="#DBFE19"/>
<path d="M0 651.745L83.5 679.694H167L250.5 639.041L334 748.296H417.5L501 761L584.5 748.296H668V512H584.5H501H417.5H334H250.5L167 512H83.5H0L0 651.745Z" fill="#DBFE19"/>
<path d="M0 574.02L83.5 602.584L167 574.02L250.5 602.584L334 641.859L417.5 650.786H501L584.5 681.135L668 641.859V561.523L584.5 590.087L501 570.45L417.5 561.523L334 581.161L250.5 513.322H167L83.5 532.959L0 502.61L0 574.02Z" fill="#8DC032"/>
<path d="M0 618.056L83.5 695.917L167 656.986L250.5 642.387L334 749.446L417.5 722.681H501L584.5 761.612L668 722.681V625.355L584.5 678.885L501 637.521H417.5L334 625.355L250.5 571.826L167 532.896L83.5 571.826L0 532.896L0 618.056Z" fill="#6CA034"/>
<path d="M0 801.835L83.5 745.977L167 757.355L250.5 762.527L334 773.906L417.5 818.385L501 768.734L584.5 773.906L668 824.592V654.948L584.5 671.499L501 654.948L417.5 654.948L334 666.327L250.5 620.813L167 627.019L83.5 643.57L0 610.469L0 801.835Z" fill="#518233"/>
<path d="M0 813.427L83.5 774.775L167 786.854L250.5 774.775L334 825.506L417.5 840L501 825.506L584.5 840L668 813.427V716.798H584.5L501 666.067L417.5 690.225L334 704.719L250.5 625H167L83.5 666.067L0 678.146L0 813.427Z" fill="#294726"/>
<path d="M0 840H83.5H167H250.5H334H417.5H501L584.5 840H668V716.333L584.5 733.699L501 709.006L417.5 712.619L334 727.375L246.829 702.621L139.38 723.245L83.5 681L0 716.333L0 840Z" fill="#1B2B1C"/>
</g>
<defs>
<clipPath id="clip0_430_203">
<rect width="540" height="960" fill="white"/>
</clipPath>
</defs>
</svg>
