<svg width="1920" height="1026" viewBox="0 0 1920 1026" fill="none" xmlns="http://www.w3.org/2000/svg">
<path d="M0 207.345L174 265.827L350 233.928L524 148.863L698 233.928L872 175.446H1048L1222 148.863L1396 233.928L1570 207.345L1746 265.827L1920 207.345V0H1746H1570H1396H1222H1048H872H698H524H350H174H0V207.345Z" fill="#1B2B1C"/>
<path d="M0 232.588L174 333.278H350L524 232.588L698 251.235H872L1048 351.924L1222 213.942L1396 374.3L1570 333.278L1746 314.632L1920 374.3V64.7718L1746 105.794L1570 64.7718L1396 83.4181L1222 23.75L1048 42.3963H872L698 83.4181L524 23.75L350 83.4181L174 105.794L0 64.7718V232.588Z" fill="#2B4B28"/>
<path d="M0 297.705L174 341.367L350 367.564L524 297.705L698 341.367L872 297.705L1048 367.564L1222 249.677L1396 485.45L1570 341.367L1746 319.536L1920 485.45V240.945L1746 171.087L1570 192.917L1396 240.945L1222 53.2002L1048 214.748L872 96.8618H698L524 75.031L350 192.917H174L0 75.031V297.705Z" fill="#426E30"/>
<path d="M0 641.146L174 684L350 573.085L524 656.271L698 532.752L872 547.877L1048 560.481L1222 588.21L1396 600.814L1570 492.42L1746 532.752L1920 600.814V310.923L1746 215.132L1570 227.736L1396 310.923L1222 174.8L1048 242.861L872 202.529L698 227.736L524 202.529L350 242.861L174 227.736L0 202.529V641.146Z" fill="#5E9134"/>
<path d="M0 779.763L174 904.4L350 608.963L524 858.238L698 581.266L872 530.488L1048 558.185L1222 733.601L1396 705.903L1570 558.185H1746L1920 632.044V447.396L1746 322.759L1570 248.9L1396 447.396L1222 424.315L1048 373.537L872 350.456L698 322.759L524 548.953L350 396.618L174 599.731L0 521.256V779.763Z" fill="#81B533"/>
<path d="M0 897.423L174 994.65L350 782.19L524 994.65L698 857.812L872 760.584L1048 839.807L1222 976.645L1396 879.418L1570 724.574L1746 782.19L1920 897.423V540.922L1746 483.306H1570L1396 598.539L1222 620.145L1048 483.306L872 461.7L698 501.311L524 717.372L350 522.917L174 753.382L0 656.155V897.423Z" fill="#ABDA2C"/>
<path d="M0 1026H174H350H524H698H872H1048H1222H1396H1570H1746H1920V760.05L1746 689.717L1570 654.55L1396 749.061L1222 808.405L1048 724.884L872 676.529L698 735.873L524 819.394L350 689.717L174 819.394L0 760.05V1026Z" fill="#DBFE19"/>
</svg>
