<svg width="1433" height="807" viewBox="0 0 1433 807" fill="none" xmlns="http://www.w3.org/2000/svg">
<path d="M1433 724.908L1253.88 708.489L1074.75 708.489L895.625 732.371L716.5 668.189L537.375 668.189L358.25 660.726L179.125 668.189L1.97646e-05 668.189L7.62939e-06 807L179.125 807L358.25 807L537.375 807L716.5 807L895.625 807L1074.75 807L1253.88 807L1433 807L1433 724.908Z" fill="#DBFE19"/>
<path d="M1433 677.145L1253.88 651.771L1074.75 668.189L895.625 668.189L716.5 611.47L537.375 627.889L358.25 620.426L179.125 604.007L1.70244e-05 627.889L1.32403e-05 671.174L179.125 671.174L358.25 663.711L537.375 671.174L716.5 671.174L895.625 735.356L1074.75 711.474L1253.88 711.474L1433 727.893L1433 677.145Z" fill="#B1DF2B"/>
<path d="M1433 620.426L1253.88 596.545L1074.75 620.426L895.625 596.545L716.5 563.708L537.375 556.245L358.25 556.245L179.125 530.871L1.78073e-05 563.708L1.19355e-05 630.874L179.125 606.993L358.25 623.411L537.375 630.874L716.5 614.456L895.625 671.174L1074.75 671.174L1253.88 654.756L1433 680.13L1433 620.426Z" fill="#8DC032"/>
<path d="M1433 571.171L1253.88 523.408L1074.75 547.289L895.625 556.245L716.5 490.571L537.375 506.989L358.25 506.989L179.125 483.108L1.78073e-05 506.989L1.25879e-05 566.693L179.125 533.856L358.25 559.23L537.375 559.23L716.5 566.693L895.625 599.53L1074.75 623.411L1253.88 599.53L1433 623.411L1433 571.171Z" fill="#6CA034"/>
<path d="M1433 298.026L1253.88 378.626L1074.75 362.208L895.625 354.745L716.5 338.326L537.375 274.145L358.25 345.789L179.125 338.326L3.46401e-05 265.189L1.32403e-05 509.974L179.125 486.093L358.25 509.974L537.375 509.974L716.5 493.556L895.625 559.23L1074.75 550.274L1253.88 526.393L1433 574.156L1433 298.026Z" fill="#518233"/>
<path d="M1433 160.708L1253.88 168.171L1074.75 193.545L895.625 193.545L716.5 144.289L537.375 153.245L358.25 168.17L179.125 136.826L2.90292e-05 136.826L1.75464e-05 268.174L179.125 341.311L358.25 348.774L537.375 277.13L716.5 341.311L895.625 357.73L1074.75 365.193L1253.88 381.611L1433 301.011L1433 160.708Z" fill="#3B642E"/>
<path d="M1433 36.3373L1253.88 89.1912L1074.75 72.6744L895.625 89.1912L716.5 19.8204L537.375 0.00017228L358.25 19.8204L179.125 0.000140961L3.0155e-05 36.3372L1.86034e-05 168.472L179.125 168.472L358.25 237.843L537.375 204.809L716.5 184.989L895.625 294L1074.75 294L1253.88 237.843L1433 221.326L1433 36.3373Z" fill="#294726"/>
<path d="M1433 0.000247002L1253.88 0.000231342L1074.75 0.000215682L895.625 0.000200023L716.5 0.000184363L537.375 0.000168704L358.25 0.000153044L179.125 0.000137384L1.81201e-05 0.000121725L9.96067e-06 93.3335L179.125 75.0001L358.25 85.0002L537.375 75.0002L716.5 85.0002L895.625 120L1074.75 111.667L1253.88 120L1433 93.3336L1433 0.000247002Z" fill="#1B2B1C"/>
</svg>
