<svg width="1433" height="807" viewBox="0 0 1433 807" fill="none" xmlns="http://www.w3.org/2000/svg">
<g clip-path="url(#clip0_429_193)">
<path d="M1433 753.122L1253.88 742.347H1074.75L895.625 758.02L716.5 715.898H537.375L358.25 711L179.125 715.898H0V807H179.125H358.25H537.375H716.5H895.625H1074.75H1253.88H1433V753.122Z" fill="#DBFE19"/>
<path d="M1433 689.182L1253.88 644.363L1074.75 673.363H895.625L716.5 573.182L537.375 602.182L358.25 589L179.125 560L0 602.182V749.818L179.125 727.5L341 749.818H507L716.5 727.5L895.625 792L1074.75 749.818H1253.88L1433 778.818V689.182Z" fill="#B1DF2B"/>
<path d="M1433 613.2L1253.88 561.68L1074.75 613.2L895.625 561.68L716.5 490.84L537.375 474.74H358.25L179.125 420L0 490.84V635.74L179.125 584.22L358.25 619.64L537.375 635.74L716.5 600.32L895.625 722.68H1074.75L1253.88 687.26L1433 742V613.2Z" fill="#8DC032"/>
<path d="M1433 555.968L1253.88 448.053L1074.75 502.01L895.625 522.244L716.5 373.862L537.375 410.957H358.25L179.125 357L0 410.957V545.851L179.125 471.66L358.25 528.99H537.375L716.5 545.851L895.625 620.043L1074.75 674L1253.88 620.043L1433 674V555.968Z" fill="#6CA034"/>
<path d="M1433 215.618L1253.88 320.227L1074.75 298.917L895.625 289.231L716.5 267.923L537.375 184.623L358.25 277.609L179.125 267.923L0 173V490.701L179.125 459.705L358.25 490.701H537.375L716.5 469.391L895.625 554.628L1074.75 543.005L1253.88 512.009L1433 574V215.618Z" fill="#518233"/>
<path d="M1433 160.122L1253.88 167.348L1074.75 191.915H895.625L716.5 144.225L537.375 152.897L358.25 167.348L179.125 137H0V264.17L179.125 334.982L358.25 342.207L537.375 272.842L716.5 334.982L895.625 350.878L1074.75 358.104L1253.88 374L1433 295.963V160.122Z" fill="#3B642E"/>
<path d="M1433 32.7528L1253.88 80.3935L1074.75 65.5056L895.625 80.3935L716.5 17.8651L537.375 0L358.25 17.8651L179.125 0L0 32.7528V151.854H179.125L358.25 214.382L537.375 184.607L716.5 166.741L895.625 265H1074.75L1253.88 214.382L1433 199.495V32.7528Z" fill="#294726"/>
<path d="M1433 0H1253.88H1074.75H895.625H716.5H537.375H358.25H179.125H0V95.667L179.125 76.875L358.25 87.1252L537.375 76.875L716.5 87.1252L895.625 123L1074.75 114.458L1253.88 123L1433 95.667V0Z" fill="#1B2B1C"/>
</g>
<defs>
<clipPath id="clip0_429_193">
<rect width="1433" height="807" fill="white"/>
</clipPath>
</defs>
</svg>
