<svg width="1433" height="807" viewBox="0 0 1433 807" fill="none" xmlns="http://www.w3.org/2000/svg">
<path d="M0 82.0926L179.125 98.5111H358.25L537.375 74.6296L716.5 138.811H895.625L1074.75 146.274L1253.87 138.811H1433V0H1253.87H1074.75H895.625H716.5H537.375H358.25H179.125H0V82.0926Z" fill="#B1DF2B"/>
<path d="M0 129.856L179.125 155.23L358.25 138.811H537.375L716.5 195.53L895.625 179.111L1074.75 186.574L1253.87 202.993L1433 179.111V135.826H1253.87L1074.75 143.289L895.625 135.826H716.5L537.375 71.6445L358.25 95.526H179.125L0 79.1075V129.856Z" fill="#B1DF2B"/>
<path d="M0 155.4L179.125 200.36L358.25 155.4L537.375 200.36L716.5 262.18L895.625 276.23H1074.75L1253.87 324L1433 262.18V135.73L1253.87 180.69L1074.75 149.78L895.625 135.73L716.5 166.64L537.375 59.86H358.25L179.125 90.77L0 43V155.4Z" fill="#8DC032"/>
<path d="M0 236.511L179.125 331.149L358.25 283.83L537.375 266.085L716.5 396.213L895.625 363.681H1074.75L1253.87 411L1433 363.681V245.383L1253.87 310.447L1074.75 260.17H895.625L716.5 245.383L537.375 180.319L358.25 133L179.125 180.319L0 133V236.511Z" fill="#6CA034"/>
<path d="M0 508.974L179.125 428.374L358.25 444.793L537.375 452.256L716.5 468.674L895.625 532.856L1074.75 461.211L1253.87 468.674L1433 541.811V297.026L1253.87 320.907L1074.75 297.026H895.625L716.5 313.444L537.375 247.77L358.25 256.726L179.125 280.607L0 232.844V508.974Z" fill="#518233"/>
<path d="M0 646.293L179.125 638.83L358.25 613.456H537.375L716.5 662.711L895.625 653.756L1074.75 638.83L1253.87 670.174H1433V538.826L1253.87 465.689L1074.75 458.226L895.625 529.87L716.5 465.689L537.375 449.27L358.25 441.807L179.125 425.389L0 505.989V646.293Z" fill="#3B642E"/>
<path d="M0 770.663L179.125 717.809L358.25 734.326L537.375 717.809L716.5 787.18L895.625 807L1074.75 787.18L1253.87 807L1433 770.663V638.528H1253.87L1074.75 569.157L895.625 602.191L716.5 622.011L537.375 513H358.25L179.125 569.157L0 585.674V770.663Z" fill="#294726"/>
<path d="M0 807H179.125H358.25H537.375H716.5H895.625H1074.75H1253.87H1433V713.667L1253.87 732L1074.75 722L895.625 732L716.5 722L537.375 687L358.25 695.333L179.125 687L0 713.667V807Z" fill="#1B2B1C"/>
</svg>
