<svg width="1920" height="1080" viewBox="0 0 1920 1080" fill="none" xmlns="http://www.w3.org/2000/svg">
<path d="M0 218.258L174 279.818L350 246.24L524 156.698L698 246.24L872 184.68H1048L1222 156.698L1396 246.24L1570 218.258L1746 279.818L1920 218.258V0H1746H1570H1396H1222H1048H872H698H524H350H174H0V218.258Z" fill="#1B2B1C"/>
<path d="M0 244.83L174 350.819H350L524 244.83L698 264.457H872L1048 370.447L1222 225.202L1396 394L1570 350.819L1746 331.191L1920 394V68.1809L1746 111.362L1570 68.1809L1396 87.8085L1222 25L1048 44.6277H872L698 87.8085L524 25L350 87.8085L174 111.362L0 68.1809V244.83Z" fill="#2B4B28"/>
<path d="M0 313.374L174 359.333L350 386.909L524 313.374L698 359.333L872 313.374L1048 386.909L1222 262.818L1396 511L1570 359.333L1746 336.354L1920 511V253.626L1746 180.091L1570 203.071L1396 253.626L1222 56L1048 226.051L872 101.96H698L524 78.9798L350 203.071H174L0 78.9798V313.374Z" fill="#426E30"/>
<path d="M0 674.891L174 720L350 603.248L524 690.812L698 560.792L872 576.713L1048 589.98L1222 619.168L1396 632.436L1570 518.337L1746 560.792L1920 632.436V327.287L1746 226.455L1570 239.723L1396 327.287L1222 184L1048 255.644L872 213.188L698 239.723L524 213.188L350 255.644L174 239.723L0 213.188V674.891Z" fill="#5E9134"/>
<path d="M0 820.803L174 952L350 641.014L524 903.408L698 611.859L872 558.408L1048 587.563L1222 772.211L1396 743.056L1570 587.563H1746L1920 665.31V470.944L1746 339.746L1570 262L1396 470.944L1222 446.648L1048 393.197L872 368.901L698 339.746L524 577.845L350 417.493L174 631.296L0 548.69V820.803Z" fill="#81B533"/>
<path d="M0 944.655L174 1047L350 823.358L524 1047L698 902.959L872 800.615L1048 884.007L1222 1028.05L1396 925.703L1570 762.709L1746 823.358L1920 944.655V569.392L1746 508.743H1570L1396 630.041L1222 652.784L1048 508.743L872 486L698 527.696L524 755.128L350 550.439L174 793.034L0 690.689V944.655Z" fill="#ABDA2C"/>
<path d="M0 1080H174H350H524H698H872H1048H1222H1396H1570H1746H1920V800.053L1746 726.018L1570 689L1396 788.485L1222 850.953L1048 763.035L872 712.136L698 774.604L524 862.521L350 726.018L174 862.521L0 800.053V1080Z" fill="#DBFE19"/>
</svg>
