<svg width="1433" height="862" viewBox="0 0 1433 862" fill="none" xmlns="http://www.w3.org/2000/svg">
<path d="M0 400.714L179.125 480.857L358.25 480.857L537.375 364.286L716.5 677.571H895.625L1074.75 714L1253.87 677.571L1433 677.571V0L1253.87 0L1074.75 0L895.625 0L716.5 0L537.375 0L358.25 0L179.125 0L0 0L0 400.714Z" fill="#DBFE19"/>
<path d="M0 361.4L179.125 415.16L358.25 361.4L537.375 415.16L716.5 489.08L895.625 505.88H1074.75L1253.87 563L1433 489.08V337.88L1253.87 391.64L1074.75 354.68L895.625 337.88L716.5 374.84L537.375 247.16H358.25L179.125 284.12L0 227L0 361.4Z" fill="#8DC032"/>
<path d="M0 444.28L179.125 590.821L358.25 517.551L537.375 490.074L716.5 691.569L895.625 641.195H1074.75L1253.87 714.466L1433 641.195V458.018L1253.87 558.765L1074.75 480.915H895.625L716.5 458.018L537.375 357.271L358.25 284L179.125 357.271L0 284L0 444.28Z" fill="#6CA034"/>
<path d="M0 790.169L179.125 685.039L358.25 706.454L537.375 716.188L716.5 737.604L895.625 821.319L1074.75 727.87L1253.87 737.604L1433 833V513.715L1253.87 544.865L1074.75 513.715H895.625L716.5 535.13L537.375 449.469L358.25 461.15L179.125 492.3L0 430L0 790.169Z" fill="#518233"/>
<path d="M0 816.517L179.125 750.36L358.25 771.034L537.375 750.36L716.5 837.191L895.625 862L1074.75 837.191L1253.87 862L1433 816.517V651.124L1253.87 651.124L1074.75 564.292L895.625 605.64L716.5 630.449L537.375 494H358.25L179.125 564.292L0 584.966L0 816.517Z" fill="#294726"/>
<path d="M0 862H179.125H358.25H537.375L716.5 862H895.625H1074.75H1253.88L1433 862V679.222L1253.88 704.888L1074.75 668.392L895.625 673.733L716.5 695.542L529.5 658.956L299 689.437L179.125 627L0 679.222L0 862Z" fill="#1B2B1C"/>
</svg>
