<svg width="180" height="180" viewBox="0 0 180 180" fill="none" xmlns="http://www.w3.org/2000/svg">
<g clip-path="url(#clip0_2_360)">
<path d="M147.996 0H32.0045C14.3289 0 0 14.3289 0 32.0045V147.996C0 165.671 14.3289 180 32.0045 180H147.996C165.671 180 180 165.671 180 147.996V32.0045C180 14.3289 165.671 0 147.996 0Z" fill="#1E1E1E"/>
<path d="M72.0062 144.012C81.9483 144.012 90.0078 135.953 90.0078 126.011V108.009H72.0062C62.0641 108.009 54.0047 116.084 54.0202 126.026C54.0202 135.953 62.0797 144.012 72.0062 144.012Z" fill="#0ACF83"/>
<path d="M54.0046 90.0078C54.0046 80.0657 62.0641 72.0062 72.0062 72.0062H90.0077V108.009H72.0062C62.0641 108.009 54.0046 99.9499 54.0046 90.0078Z" fill="#A259FF"/>
<path d="M54.0046 54.0046C54.0046 44.0625 62.0641 36.0031 72.0062 36.0031H90.0077V72.0062H72.0062C62.0641 72.0062 54.0046 63.9467 54.0046 54.0046Z" fill="#F24E1E"/>
<path d="M90.0078 36.0031H108.009C117.951 36.0031 126.011 44.0625 126.011 54.0046C126.011 63.9467 117.951 72.0062 108.009 72.0062H90.0078V36.0031Z" fill="#FF7262"/>
<path d="M126.011 90.0078C126.011 99.9499 117.951 108.009 108.009 108.009C98.0672 108.009 90.0078 99.9499 90.0078 90.0078C90.0078 80.0657 98.0672 72.0062 108.009 72.0062C117.951 72.0062 126.011 80.0657 126.011 90.0078Z" fill="#1ABCFE"/>
</g>
<defs>
<clipPath id="clip0_2_360">
<rect width="180" height="180" fill="white"/>
</clipPath>
</defs>
</svg>
