<svg width="180" height="180" viewBox="0 0 180 180" fill="none" xmlns="http://www.w3.org/2000/svg">
<path d="M148 0H32C14.3269 0 0 14.3269 0 32V148C0 165.673 14.3269 180 32 180H148C165.673 180 180 165.673 180 148V32C180 14.3269 165.673 0 148 0Z" fill="#330000"/>
<path d="M87 107.249H59.1L53.4 124.874C53.2514 125.549 52.6514 126 51.9743 125.923H37.8743C37.0486 125.923 36.8229 125.471 37.0486 124.571L61.2 55.0457C61.4257 54.2972 61.6486 53.4715 61.9486 52.5715C62.2486 50.9972 62.3971 49.3457 62.3971 47.6972C62.3229 47.3229 62.6229 46.9457 62.9972 46.8715H82.4229C83.0229 46.8715 83.3229 47.0972 83.3972 47.4715L110.771 124.72C110.997 125.546 110.771 125.92 110.023 125.92H94.3486C93.8229 125.994 93.2971 125.62 93.1486 125.094L86.9971 107.246L87 107.249ZM63.4486 92.0257H82.5C82.0514 90.4515 81.4486 88.5772 80.7743 86.6257C80.1 84.6 79.4229 82.4257 78.7486 80.1772C78 77.8515 77.3229 75.6029 76.5743 73.2772C75.8257 70.9515 75.1486 68.7772 74.5486 66.6029C73.9486 64.5029 73.4229 62.5515 72.9 60.7515H72.7486C72.0743 63.9772 71.2486 67.2 70.1972 70.4257C69.0714 74.0257 67.9457 77.7772 66.7486 81.5257C65.6971 85.3515 64.5743 88.8772 63.4486 92.0257ZM127.5 60C125.026 60.0743 122.626 59.1 120.826 57.3743C119.1 55.5 118.2 53.0229 118.277 50.4743C118.203 47.9229 119.177 45.5257 120.977 43.8C122.777 42.0743 125.177 41.1743 127.651 41.1743C130.577 41.1743 132.826 42.0743 134.477 43.8C136.126 45.6 137.026 48 136.951 50.4743C137.026 53.0257 136.126 55.5 134.326 57.3743C132.6 59.1743 130.051 60.1486 127.5 60ZM119.1 125.1V67.3486C119.1 66.6 119.4 66.2972 120.074 66.2972H134.926C135.6 66.2972 135.9 66.6715 135.9 67.3486V125.1C135.9 125.926 135.6 126.3 134.926 126.3H120.226C119.477 126.3 119.1 125.849 119.1 125.1Z" fill="#FF9A00"/>
</svg>
