<svg width="180" height="180" viewBox="0 0 180 180" fill="none" xmlns="http://www.w3.org/2000/svg">
<g clip-path="url(#clip0_2_367)">
<path d="M148 0H32C14.3269 0 0 14.3269 0 32V148C0 165.673 14.3269 180 32 180H148C165.673 180 180 165.673 180 148V32C180 14.3269 165.673 0 148 0Z" fill="#49021F"/>
<path d="M65.4 48.1513V125.4C65.4 126.226 65.0257 126.6 64.3486 126.6H49.6486C48.9743 126.6 48.6743 126.226 48.6743 125.4V48.1485C48.6743 47.4742 49.0486 47.1742 49.7257 47.1742H64.3515C64.8 47.0999 65.2515 47.3999 65.3257 47.9227C65.4 47.997 65.4 48.0742 65.4 48.1485V48.1513Z" fill="#FF3366"/>
<path d="M108.749 127.5C103.2 127.574 97.6486 126.451 92.6229 124.126C87.8972 121.951 83.9972 118.351 81.2972 113.926C78.5229 109.351 77.1715 103.651 77.1715 96.8257C77.0972 91.2742 78.5229 85.7999 81.2972 80.9999C84.1486 76.1257 88.2715 72.0742 93.2229 69.3742C98.4743 66.4485 104.771 65.0228 112.197 65.0228C112.571 65.0228 113.097 65.0228 113.771 65.0971C114.446 65.1714 115.197 65.1714 116.097 65.2457V41.5457C116.097 41.0199 116.323 40.7199 116.846 40.7199H132.071C132.446 40.6457 132.746 40.9457 132.82 41.2457V112.797C132.82 114.149 132.894 115.649 132.969 117.297C133.117 118.871 133.194 120.371 133.269 121.649C133.269 122.174 133.043 122.623 132.52 122.849C128.62 124.497 124.494 125.7 120.294 126.449C116.546 127.123 112.646 127.497 108.746 127.497L108.749 127.5ZM116.1 112.5V79.4999C115.426 79.3514 114.749 79.2 114.074 79.1257C113.249 79.0514 112.426 78.9771 111.6 78.9771C108.674 78.9771 105.749 79.5771 103.126 80.9257C100.577 82.1999 98.4 84.0742 96.7515 86.4771C95.1029 88.88 94.2772 92.1028 94.2772 96.0028C94.2029 98.6285 94.6515 101.254 95.5515 103.729C96.3 105.754 97.4257 107.554 98.9257 109.054C100.351 110.406 102.074 111.454 104.026 112.054C106.051 112.729 108.151 113.029 110.251 113.029C111.377 113.029 112.426 112.954 113.4 112.88C114.374 112.954 115.274 112.806 116.1 112.506V112.5Z" fill="#FF3366"/>
</g>
<defs>
<clipPath id="clip0_2_367">
<rect width="180" height="180" fill="white"/>
</clipPath>
</defs>
</svg>
