<svg width="180" height="180" viewBox="0 0 180 180" fill="none" xmlns="http://www.w3.org/2000/svg">
<path d="M148 0H32C14.3269 0 0 14.3269 0 32V148C0 165.673 14.3269 180 32 180H148C165.673 180 180 165.673 180 148V32C180 14.3269 165.673 0 148 0Z" fill="#001E36"/>
<path d="M40.5 125.326V48.1514C40.5 47.6257 40.7257 47.3257 41.2486 47.3257C42.5229 47.3257 43.7229 47.3257 45.4486 47.2514C47.2486 47.1771 49.1229 47.1771 51.1486 47.1C53.1743 47.0257 55.3486 47.0257 57.6743 46.9486C60 46.8743 62.2486 46.8743 64.5 46.8743C70.6486 46.8743 75.7514 47.6228 79.9486 49.2C83.6971 50.4743 87.1486 52.5743 90 55.3514C92.4 57.7514 94.2743 60.6771 95.4743 63.9028C96.6 67.0514 97.2 70.2771 97.2 73.6514C97.2 80.1 95.7 85.4257 92.7 89.6257C89.7 93.8257 85.5 96.9771 80.6257 98.7743C75.5257 100.649 69.9 101.323 63.7514 101.323C61.9514 101.323 60.7514 101.323 60.0029 101.249C59.2543 101.174 58.2029 101.174 56.7771 101.174V125.249C56.8514 125.774 56.4771 126.223 55.9514 126.297H41.4029C40.8029 126.297 40.5029 125.997 40.5029 125.323L40.5 125.326ZM56.8514 61.8V87C57.9029 87.0743 58.8771 87.1485 59.7771 87.1485H63.7514C66.6771 87.1485 69.6029 86.7 72.3771 85.7971C74.7771 85.1228 76.8771 83.6971 78.5257 81.8228C80.1 79.9486 80.8514 77.3971 80.8514 74.0971C80.9257 71.7714 80.3257 69.4486 79.1257 67.4228C77.8514 65.4743 76.0514 63.9743 73.8743 63.1486C71.1 62.0228 68.1 61.5743 65.0229 61.6486C63.0743 61.6486 61.3486 61.6486 59.9229 61.7228C58.4229 61.6486 57.3743 61.7228 56.8486 61.7971L56.8514 61.8Z" fill="#31A8FF"/>
<path d="M144 82.4257C141.749 81.2257 139.351 80.4 136.8 79.8743C134.026 79.2743 131.251 78.9 128.4 78.9C126.9 78.8257 125.326 79.0486 123.9 79.4257C122.926 79.6514 122.1 80.1743 121.574 80.9257C121.2 81.5257 120.974 82.2771 120.974 82.9514C120.974 83.6257 121.274 84.3028 121.723 84.9C122.397 85.7257 123.297 86.4 124.271 86.9257C125.997 87.8257 127.797 88.6514 129.597 89.4C133.646 90.7514 137.549 92.6257 141.146 94.8743C143.62 96.4486 145.646 98.5486 147.071 101.1C148.271 103.5 148.871 106.126 148.797 108.826C148.871 112.351 147.823 115.874 145.871 118.8C143.771 121.8 140.846 124.126 137.471 125.474C133.797 127.049 129.297 127.874 123.897 127.874C120.446 127.874 117.071 127.574 113.697 126.9C111.071 126.449 108.446 125.626 106.049 124.5C105.523 124.2 105.149 123.674 105.223 123.074V110.026C105.223 109.8 105.297 109.5 105.523 109.351C105.749 109.203 105.974 109.277 106.197 109.426C109.123 111.151 112.197 112.351 115.497 113.1C118.349 113.849 121.349 114.226 124.349 114.226C127.349 114.226 129.223 113.851 130.574 113.177C131.774 112.651 132.6 111.377 132.6 110.029C132.6 108.98 132 108.003 130.8 107.029C129.6 106.054 127.126 104.929 123.449 103.503C119.623 102.151 116.097 100.354 112.8 98.1028C110.474 96.4543 108.526 94.2771 107.1 91.7286C105.9 89.3286 105.3 86.7028 105.374 84.08C105.374 80.8543 106.274 77.78 107.923 75.0057C109.797 72.0057 112.571 69.6057 115.797 68.1057C119.323 66.3057 123.749 65.48 129.071 65.48C132.146 65.48 135.297 65.7057 138.371 66.1543C140.623 66.4543 142.797 67.0543 144.823 67.88C145.123 67.9543 145.423 68.2543 145.571 68.5543C145.646 68.8543 145.72 69.1543 145.72 69.4543V81.68C145.72 81.98 145.571 82.28 145.346 82.4286C144.671 82.5771 144.297 82.5771 143.997 82.4286L144 82.4257Z" fill="#31A8FF"/>
</svg>
