<svg width="180" height="180" viewBox="0 0 180 180" fill="none" xmlns="http://www.w3.org/2000/svg">
<g clip-path="url(#clip0_2_415)">
<mask id="mask0_2_415" style="mask-type:luminance" maskUnits="userSpaceOnUse" x="0" y="0" width="180" height="180">
<path d="M180 0H0V180H180V0Z" fill="white"/>
</mask>
<g mask="url(#mask0_2_415)">
<path d="M147.996 0H32.0044C14.3284 0 0 14.3284 0 32.0044V147.996C0 165.67 14.3284 180 32.0044 180H147.996C165.67 180 180 165.672 180 147.996V32.0044C180 14.3284 165.672 0 147.996 0Z" fill="#CC6699"/>
<path d="M90.7037 30.9372C56.9533 42.5394 35.1562 66.0934 37.2657 80.1562C39.3752 94.219 60.4686 105.469 69.9614 112.852C57.657 119.18 42.1884 128.672 42.5395 140.977C43.2431 157.852 61.5234 152.58 69.2577 147.657C76.992 142.734 84.7263 129.024 79.8051 114.61C90.7037 111.797 100.196 115.314 103.008 117.423C113.907 125.158 108.282 133.947 104.414 135.353C100.546 136.758 103.008 137.462 105.469 136.758C107.929 136.055 113.203 132.539 113.203 126.564C113.203 111.446 97.0306 104.415 76.992 109.689C65.3897 97.3848 49.5701 91.76 50.2738 78.3993C50.6248 73.4782 52.3833 60.8212 83.6715 45.0015C114.961 29.1819 137.11 35.5088 134.296 49.9227C130.077 71.7198 92.1095 86.4847 78.7488 73.8293C78.0452 72.4234 75.5846 71.3687 76.9904 75.2351C84.021 92.8132 140.974 84.7278 143.436 47.4621C144.14 27.7745 115.663 22.5008 90.7021 30.9388L90.7037 30.9372ZM60.4686 143.438C51.6796 146.251 52.0306 140.625 52.3833 138.517C53.438 132.541 58.3591 125.158 73.1256 117.775C77.3446 131.134 67.8519 141.328 60.4686 143.438Z" fill="white"/>
</g>
</g>
<defs>
<clipPath id="clip0_2_415">
<rect width="180" height="180" fill="white"/>
</clipPath>
</defs>
</svg>
