<svg width="180" height="180" viewBox="0 0 180 180" fill="none" xmlns="http://www.w3.org/2000/svg">
<mask id="mask0_430_202" style="mask-type:luminance" maskUnits="userSpaceOnUse" x="0" y="0" width="180" height="180">
<path d="M180 0H0V180H180V0Z" fill="white"/>
</mask>
<g mask="url(#mask0_430_202)">
<path d="M89.9972 28.6602C56.1743 28.6602 28.6572 56.1774 28.6572 90.0002C28.6572 123.823 56.1772 151.343 89.9972 151.343C123.817 151.343 151.334 123.823 151.334 90.0002C151.334 56.1774 123.817 28.6602 89.9972 28.6602ZM34.8486 89.9974C34.8486 82.0031 36.5629 74.4117 39.6229 67.5517L65.9314 139.631C47.5343 130.691 34.8486 111.826 34.8486 89.9974ZM89.9972 145.151C84.5829 145.151 79.3572 144.357 74.4172 142.906L90.9629 94.8231L107.917 141.266C108.029 141.537 108.163 141.789 108.309 142.026C102.574 144.043 96.4172 145.151 89.9943 145.151H89.9972ZM97.6 64.1402C100.917 63.966 103.911 63.6145 103.911 63.6145C106.883 63.2631 106.531 58.8974 103.557 59.0717C103.557 59.0717 94.6257 59.7717 88.86 59.7717C83.44 59.7717 74.3343 59.0717 74.3343 59.0717C71.3629 58.8974 71.0143 63.4402 73.9857 63.6145C73.9857 63.6145 76.8 63.966 79.7686 64.1402L88.36 87.6831L76.2914 123.88L56.2086 64.1431C59.5343 63.9688 62.52 63.6174 62.52 63.6174C65.4886 63.266 65.14 58.9002 62.1657 59.0745C62.1657 59.0745 53.2372 59.7745 47.4686 59.7745C46.4314 59.7745 45.2143 59.7459 43.92 59.7088C53.78 44.7345 70.7314 34.8517 90 34.8517C104.357 34.8517 117.431 40.3402 127.243 49.3288C127.006 49.3145 126.771 49.286 126.529 49.286C121.111 49.286 117.269 54.0059 117.269 59.0745C117.269 63.6174 119.889 67.466 122.686 72.0088C124.786 75.6831 127.234 80.4031 127.234 87.2202C127.234 91.9402 125.42 97.4202 123.034 105.049L117.534 123.431L97.6029 64.1459L97.6 64.1402ZM138.391 63.5374C142.7 71.3945 145.149 80.4088 145.149 89.9974C145.149 110.343 134.12 128.106 117.723 137.669L134.569 88.9631C137.717 81.0974 138.763 74.806 138.763 69.2088C138.763 67.1802 138.629 65.2945 138.391 63.5374Z" fill="#21759B"/>
<path d="M148 0H32C14.3257 0 0 14.3257 0 32V148C0 165.674 14.3257 180 32 180H148C165.674 180 180 165.674 180 148V32C180 14.3257 165.674 0 148 0ZM89.9971 154.289C54.5486 154.289 25.7086 125.451 25.7086 89.9971C25.7086 54.5429 54.5486 25.7114 89.9971 25.7114C125.446 25.7114 154.289 54.5514 154.289 89.9971C154.289 125.449 125.443 154.289 89.9971 154.289Z" fill="#21759B"/>
</g>
</svg>
