<svg width="180" height="180" viewBox="0 0 180 180" fill="none" xmlns="http://www.w3.org/2000/svg">
<g clip-path="url(#clip0_2_345)">
<path d="M89.9972 28.66C56.1743 28.66 28.6572 56.1772 28.6572 90C28.6572 123.823 56.1772 151.343 89.9972 151.343C123.817 151.343 151.334 123.823 151.334 90C151.334 56.1772 123.817 28.66 89.9972 28.66ZM34.8486 89.9972C34.8486 82.0029 36.5629 74.4115 39.6229 67.5515L65.9314 139.631C47.5343 130.691 34.8486 111.826 34.8486 89.9972ZM89.9972 145.151C84.5829 145.151 79.3572 144.357 74.4172 142.906L90.9629 94.8229L107.917 141.266C108.029 141.537 108.163 141.789 108.309 142.026C102.574 144.043 96.4172 145.151 89.9943 145.151H89.9972ZM97.6 64.14C100.917 63.9658 103.911 63.6143 103.911 63.6143C106.883 63.2629 106.531 58.8972 103.557 59.0715C103.557 59.0715 94.6257 59.7715 88.86 59.7715C83.44 59.7715 74.3343 59.0715 74.3343 59.0715C71.3629 58.8972 71.0143 63.44 73.9857 63.6143C73.9857 63.6143 76.8 63.9658 79.7686 64.14L88.36 87.6829L76.2914 123.88L56.2086 64.1429C59.5343 63.9686 62.52 63.6172 62.52 63.6172C65.4886 63.2658 65.14 58.9 62.1657 59.0743C62.1657 59.0743 53.2372 59.7743 47.4686 59.7743C46.4314 59.7743 45.2143 59.7457 43.92 59.7086C53.78 44.7343 70.7314 34.8515 90 34.8515C104.357 34.8515 117.431 40.34 127.243 49.3286C127.006 49.3143 126.771 49.2858 126.529 49.2858C121.111 49.2858 117.269 54.0057 117.269 59.0743C117.269 63.6172 119.889 67.4658 122.686 72.0086C124.786 75.6829 127.234 80.4029 127.234 87.22C127.234 91.94 125.42 97.42 123.034 105.049L117.534 123.431L97.6029 64.1457L97.6 64.14ZM138.391 63.5372C142.7 71.3943 145.149 80.4086 145.149 89.9972C145.149 110.343 134.12 128.106 117.723 137.669L134.569 88.9629C137.717 81.0972 138.763 74.8058 138.763 69.2086C138.763 67.18 138.629 65.2943 138.391 63.5372Z" fill="#21759B"/>
<path d="M148 0H32C14.3257 0 0 14.3257 0 32V148C0 165.674 14.3257 180 32 180H148C165.674 180 180 165.674 180 148V32C180 14.3257 165.674 0 148 0ZM89.9971 154.289C54.5486 154.289 25.7086 125.451 25.7086 89.9971C25.7086 54.5429 54.5486 25.7114 89.9971 25.7114C125.446 25.7114 154.289 54.5514 154.289 89.9971C154.289 125.449 125.443 154.289 89.9971 154.289Z" fill="#21759B"/>
</g>
<defs>
<clipPath id="clip0_2_345">
<rect width="180" height="180" fill="white"/>
</clipPath>
</defs>
</svg>
