<svg width="180" height="180" viewBox="0 0 180 180" fill="none" xmlns="http://www.w3.org/2000/svg">
<g clip-path="url(#clip0_2_422)">
<mask id="mask0_2_422" style="mask-type:luminance" maskUnits="userSpaceOnUse" x="0" y="0" width="180" height="180">
<path d="M180 0H0V180H180V0Z" fill="white"/>
</mask>
<g mask="url(#mask0_2_422)">
<mask id="mask1_2_422" style="mask-type:luminance" maskUnits="userSpaceOnUse" x="0" y="0" width="180" height="180">
<path d="M180 0H0V180H180V0Z" fill="white"/>
</mask>
<g mask="url(#mask1_2_422)">
<path d="M147.996 0H32.0044C14.3284 0 0 14.3284 0 32.0044V147.996C0 165.67 14.3284 180 32.0044 180H147.996C165.67 180 180 165.672 180 147.996V32.0044C180 14.3284 165.672 0 147.996 0Z" fill="#470137"/>
</g>
<path d="M94.6508 48.3755L72.1501 85.4998L96.1499 124.875C96.3005 125.175 96.3751 125.475 96.3005 125.774C96.226 126.074 95.9262 125.849 95.4757 125.925H78.2999C77.0992 125.925 76.2743 125.851 75.7493 125.1C74.1741 121.95 72.5244 118.876 70.9493 115.726C69.3742 112.65 67.6499 109.501 65.8495 106.275C64.0492 103.05 62.2488 99.8252 60.45 96.5242H60.2993C58.7242 99.749 56.9999 102.974 55.2741 106.199C53.5498 109.424 51.824 112.648 50.1743 115.799C48.4501 118.949 46.7243 122.174 45 125.249C44.7002 126 44.1006 126.074 43.2758 126.074H26.7757C26.4759 126.074 26.2507 126.225 26.2507 125.849C26.1761 125.549 26.2507 125.249 26.4013 125.024L49.727 86.7736L27.0025 48.2978C26.7773 47.998 26.7027 47.6982 26.8518 47.5475C27.0025 47.3223 27.3023 47.2477 27.6021 47.2477H44.6272C45.0016 47.2477 45.3775 47.3223 45.6773 47.3984C45.9771 47.5491 46.2023 47.7728 46.4276 48.0741C47.852 51.299 49.5033 54.5238 51.2275 57.7486C53.0279 60.9734 54.7522 64.1237 56.6271 67.274C58.4275 70.4242 60.0772 73.5745 61.6523 76.7993H61.803C63.3781 73.4999 65.0278 70.2736 66.6775 67.1249C68.3272 63.9746 70.053 60.8243 71.7773 57.6756C73.5015 54.5253 75.1528 51.3005 76.8025 48.2264C76.877 47.9266 77.0277 47.6268 77.2529 47.4761C77.5527 47.3254 77.8525 47.2508 78.2285 47.3254H94.0528C94.4272 47.2508 94.8031 47.4761 94.8776 47.8505C94.9522 47.925 94.8031 48.2248 94.6524 48.3755H94.6508Z" fill="#FF61F6"/>
<path d="M129.301 127.5C123.75 127.575 118.2 126.45 113.175 124.125C108.45 121.95 104.551 118.349 101.849 113.925C99.0748 109.351 97.725 103.65 97.725 96.8256C97.6504 91.2753 99.0748 85.8012 101.849 81.0012C104.7 76.1267 108.824 72.0755 113.775 69.3757C119.025 66.4507 125.324 65.0262 132.749 65.0262C133.123 65.0262 133.649 65.0262 134.324 65.1008C135 65.1753 135.749 65.1753 136.65 65.2515V41.5515C136.65 41.0264 136.875 40.7266 137.4 40.7266H152.625C152.999 40.6521 153.3 40.9519 153.375 41.2517V112.802C153.375 114.152 153.45 115.653 153.526 117.302C153.676 118.877 153.751 120.378 153.825 121.652C153.825 122.177 153.6 122.627 153.075 122.853C149.175 124.502 145.05 125.703 140.85 126.453C137.026 127.129 133.2 127.503 129.301 127.503V127.5ZM136.65 112.501V79.5007C135.974 79.35 135.3 79.2009 134.624 79.1263C133.799 79.0517 132.974 78.9756 132.15 78.9756C129.224 78.9756 126.299 79.5752 123.674 80.9251C121.124 82.2004 118.949 84.0754 117.299 86.4754C115.649 88.8753 114.825 92.1002 114.825 96.0007C114.75 98.6259 115.199 101.251 116.1 103.726C116.85 105.751 117.975 107.55 119.475 109.051C120.9 110.401 122.626 111.451 124.575 112.05C126.601 112.726 128.699 113.026 130.8 113.026C131.924 113.026 132.974 112.951 133.95 112.875C134.925 112.95 135.75 112.801 136.65 112.501Z" fill="#FF61F6"/>
</g>
</g>
<defs>
<clipPath id="clip0_2_422">
<rect width="180" height="180" fill="white"/>
</clipPath>
</defs>
</svg>
